<svg width="145" height="199" viewBox="0 0 145 199" fill="none" xmlns="http://www.w3.org/2000/svg">
    <style>
        path, circle {
            stroke:white;
            animation: fadeIn 1.5s;
        }
        @keyframes fadeIn {
            0% {opacity:0;}
            100% {opacity:1;}
        }

    }
    </style>

    <path d="M29.5 180C25.375 181.45 16.9 186.091 16 193.053C16.375 194.141 17.35 196.316 18.25 196.316C19.15 196.316 20.875 191.965 21.625 189.79C20.125 193.416 18.925 200.015 26.125 197.404C31.75 193.053 32.875 189.79 37.375 189.79C40.975 189.79 42.625 188.34 43 187.614"  stroke-width="0.8"/>
    <path d="M110.92 29.3463C109.838 16.1923 96.8531 14 93.6067 14C89.2783 14 77.3748 17.2885 75.2105 30.4424C73.0693 43.4557 87.8354 48.3465 93.6067 47.9811C100.099 47.9811 112.089 43.5471 110.92 29.3463Z"  stroke-width="0.8"/>
    <path d="M21 25.2734C19.4665 24.3125 15.7096 22.9671 12.9494 25.2734C10.1891 27.5797 14.0995 30.7187 16.3996 32" />
    <path d="M12.0153 56.3217C11.1367 13.1312 48.2578 1.59899 66.9282 1.23172C107.344 -1.4126 122.207 19.2278 125.136 29.8785C132.824 50.8127 130.627 79.4595 130.627 79.4595C132.824 119.124 131.725 145.568 131.725 145.568C129.09 173.774 106.465 187.436 103.171 188.538C98.7777 191.843 76.0804 193.312 65.8299 192.945C38.3735 188.538 14.2118 174.214 14.2118 147.771C16.4083 133.448 13.4797 76.1541 12.0153 56.3217Z"  stroke-width="0.8"/>
    <path d="M27 16.9349C23.88 14.261 15.1524 10.6371 8.28026 20.3728C1.00015 30.6864 13.4802 39.854 13.4802 41"  stroke-width="0.8"/>
    <path d="M114 14.7816C118.459 11.8192 128.492 9.22718 134.065 18.1144C141.992 30.7534 131.836 34.7782 127.377 37"  stroke-width="0.8"/>
    <path d="M121 21.4525C121 20.1946 124.173 18.9367 126.288 21.4525C128.404 23.9684 125.231 29 124.173 29" />
    <path d="M64.9542 30.9712C64.0583 17.3966 49.6499 15.4169 43.6775 16.124C37.3319 17.1845 28 22.0629 28 33.0922C28 44.1216 40.3181 48.293 47.037 49C53.3827 48.6465 65.8501 44.5458 64.9542 30.9712Z"  stroke-width="0.8"/>
    <path d="M70.2978 44C66.05 44 64.1123 48.7501 65.3865 49.7001C68.5725 52.0754 74.5456 50.6502 76.6695 49.7001C78.3686 48.9401 78.0855 47.4834 77.7315 46.8501C77.0236 45.9 74.5456 44 70.2978 44Z" />
    <path d="M63.7364 49C61.1574 49.3611 56.2204 51.6 57.1046 57.6666C57.9889 63.7333 68.1577 59.8333 70.3682 58.75C71.4735 58.2083 74.2368 58.75 75.8947 59.8333C78.5474 61.5666 82.5265 61.9999 82.5265 61.9999C84.7371 60.9166 86.2108 59.8333 86.9477 57.6666C87.3161 56.5833 85.8424 52.25 79.2106 49"  stroke-width="0.8"/>
    <path d="M62.476 61.3061C61.6971 65.1495 61.3077 72.8364 65.9808 72.8364C65.9808 72.8364 70.6537 71.6834 71.822 69.3773M71.822 69.3773V59M71.822 69.3773C72.6009 70.5304 73.6913 73.7589 76.4952 72.8364C79.299 71.914 80 70.9147 80 70.5304V62.4591V61.3061"  stroke-width="0.8"/>
    <path d="M14 100C10.0278 100.34 1.86667 102.247 1 107.149C1 107.966 1.72222 108.17 2.08333 108.17C2.44444 108.17 3.38333 108.17 4.25 108.17C2.80556 108.17 0.566667 108.783 3.16667 111.234C4.25 111.234 5.33333 114.298 14 108.17"  stroke-width="0.8"/>
    <path d="M132 99C134.909 99 141.382 100.517 144 106.583C144 107.306 143.782 108.75 142.909 108.75C142.036 108.75 141.091 108.028 140.727 107.667C142.182 108.75 144.218 111.133 140.727 112C139.636 112 137.455 112 132 108.75"  stroke-width="0.8"/>
    <path d="M108 187C116.727 191.444 119.127 197 120 197"  stroke-width="0.8"/>
    <path d="M120 196.717C120.376 197.09 121.577 197.389 123.38 195.597C125.183 193.806 122.629 191.119 121.127 190"  stroke-width="0.8"/>
    <path d="M118 179C123.076 182.929 129.166 191.857 124.091 194"  stroke-width="0.8"/>
    <path d="M42.85 33C42.85 35.6654 40.4685 37.85 37.5 37.85C34.5315 37.85 32.15 35.6654 32.15 33C32.15 30.3346 34.5315 28.15 37.5 28.15C40.4685 28.15 42.85 30.3346 42.85 33Z"  stroke-width="0.8"/>
    <circle cx="87.5" cy="34.5" r="5.35"  stroke-width="0.8"/>

</svg>
