<svg width="205" height="205" viewBox="0 0 205 205" fill="none" xmlns="http://www.w3.org/2000/svg">
<style>
    path, circle {
        stroke: white;
        animation: fadeIn 3s;
    }
    @keyframes fadeIn {
        0% {opacity:0;}
        100% {opacity:1;}
    }
</style>

<path d="M100 1.02927C137.2 0.229266 150.167 16.0293 152 24.0293V78.5293C150.4 92.9293 135.333 98.5293 128 99.5293H80.5C68.1 99.5293 61.6667 101.863 60 103.029C46.4 109.429 45.3333 138.696 46.5 152.529H26C6.4 147.729 1.16667 120.529 1 107.529C1 65.1293 20 54.5293 29.5 54.5293H103.5V47.0293H53.5V21.0293C53.5 14.6959 62.8 1.82927 100 1.02927Z" stroke-width="0.8"/>
<path d="M105.101 204.566C67.9011 205.391 54.924 189.599 53.0853 181.6L53.0491 127.1C54.6395 112.699 69.7024 107.089 77.0351 106.084L124.535 106.053C136.935 106.045 143.367 103.707 145.033 102.539C158.628 96.1302 159.676 66.8628 158.5 53.0303L179 53.0166C198.603 57.8036 203.854 85.0001 204.03 98C204.058 140.4 185.065 151.013 175.565 151.019L101.565 151.068L101.57 158.568L151.57 158.535L151.587 184.535C151.591 190.868 142.3 203.741 105.101 204.566Z" stroke-width="0.8"/>
<circle cx="75" cy="27" r="8.75" stroke-width="0.8"/>
<circle cx="131" cy="181" r="8.75" stroke-width="0.8"/>
</svg>
