<svg width="108" height="114" viewBox="0 0 108 114" fill="none" xmlns="http://www.w3.org/2000/svg">
<style>
    path, circle {
        stroke: white;
        animation: fadeIn 5s;
    }
    @keyframes fadeIn {
        0% {opacity:0;}
        100% {opacity:1;}
    }
</style>
<path d="M79.2959 103.13C82.0137 101.586 83.7811 98.7696 84.696 95.0937C85.6106 91.4194 85.6869 86.8418 84.9912 81.6816C83.5994 71.3582 79.1036 58.598 71.8508 45.8322C64.5979 33.0663 55.9383 22.6718 47.783 16.1912C43.7064 12.9517 39.7351 10.6737 36.1107 9.57828C32.4846 8.48233 29.1602 8.55853 26.4424 10.1027C23.7245 11.6468 21.9571 14.4635 21.0422 18.1394C20.1277 21.8137 20.0514 26.3913 20.7471 31.5515C22.1388 41.8749 26.6346 54.6351 33.8875 67.4009C41.1404 80.1668 49.7999 90.5613 57.9553 97.0419C62.0319 100.281 66.0031 102.559 69.6276 103.655C73.2536 104.751 76.5781 104.675 79.2959 103.13Z" stroke-width="0.8"/>
<path d="M77.3721 99.0681C79.6224 97.7896 80.9893 95.3377 81.6035 92.1294C82.2182 88.9185 82.0949 84.8816 81.3061 80.305C79.7276 71.1473 75.4644 59.7172 68.9045 48.1712C62.3446 36.6251 54.7087 27.1113 47.6502 21.0671C44.1227 18.0464 40.718 15.8738 37.6452 14.758C34.5747 13.6431 31.7688 13.562 29.5184 14.8406C27.268 16.1191 25.9011 18.571 25.287 21.7793C24.6723 24.9901 24.7955 29.0271 25.5844 33.6037C27.1628 42.7614 31.4261 54.1914 37.9859 65.7375C44.5458 77.2835 52.1818 86.7974 59.2402 92.8416C62.7678 95.8623 66.1725 98.0349 69.2453 99.1507C72.3157 100.266 75.1217 100.347 77.3721 99.0681Z" stroke-width="0.8"/>
<path d="M30.1568 99.4244C32.4262 100.669 35.2306 100.545 38.2839 99.3843C41.3395 98.2223 44.711 95.9985 48.1926 92.925C55.159 86.7749 62.6505 77.1469 69.0354 65.5032C75.4202 53.8594 79.5105 42.3663 80.9505 33.1859C81.6702 28.5978 81.7325 24.5595 81.0694 21.3583C80.4069 18.1596 79.0032 15.7287 76.7337 14.4842C74.4643 13.2398 71.6599 13.3632 68.6067 14.5243C65.551 15.6864 62.1795 17.9101 58.698 20.9837C51.7315 27.1337 44.24 36.7618 37.8552 48.4055C31.4703 60.0493 27.3801 71.5423 25.94 80.7228C25.2203 85.3108 25.1581 89.3492 25.8211 92.5504C26.4836 95.749 27.8874 98.18 30.1568 99.4244Z" stroke-width="0.8"/>
<path d="M5.00918 57.0579C5.01471 59.6461 6.47643 62.0426 8.96709 64.1562C11.4597 66.2714 15.0346 68.1508 19.4069 69.7164C28.1557 72.849 40.2038 74.7628 53.4832 74.7344C66.7626 74.706 78.8025 72.7408 87.5378 69.5708C91.9034 67.9865 95.4702 66.0918 97.9538 63.966C100.435 61.8418 101.887 59.439 101.881 56.8508C101.876 54.2626 100.414 51.866 97.9234 49.7525C95.4308 47.6373 91.8559 45.7579 87.4836 44.1923C78.7348 41.0596 66.6866 39.1459 53.4072 39.1742C40.1278 39.2026 28.088 41.1679 19.3526 44.3379C14.9871 45.9222 11.4203 47.8169 8.93671 49.9427C6.45511 52.0669 5.00364 54.4696 5.00918 57.0579Z" stroke-width="0.8"/>
<path d="M27.4129 103.189C30.1252 104.743 33.4494 104.831 37.0793 103.747C40.7076 102.665 44.6868 100.401 48.7748 97.1757C56.953 90.7239 65.6491 80.3599 72.947 67.6197C80.2448 54.8796 84.7856 42.1353 86.2137 31.8169C86.9276 26.6591 86.8675 22.0813 85.9659 18.4038C85.0639 14.7247 83.3065 11.9018 80.5941 10.3481C77.8817 8.79438 74.5576 8.70647 70.9277 9.78962C67.2994 10.8723 63.3201 13.1363 59.2322 16.3613C51.054 22.8131 42.3578 33.1771 35.06 45.9173C27.7621 58.6575 23.2214 71.4017 21.7933 81.7201C21.0794 86.8779 21.1395 91.4557 22.0411 95.1332C22.9431 98.8123 24.7005 101.635 27.4129 103.189Z" stroke-width="0.8"/>
<path d="M0.506607 56.752C0.50564 59.8778 2.08072 62.8064 4.824 65.4186C7.56611 68.0297 11.5078 70.3585 16.3375 72.3042C25.9997 76.1967 39.3144 78.5953 53.9967 78.5998C68.6791 78.6044 81.9953 76.214 91.6598 72.3275C96.4908 70.3848 100.434 68.0584 103.178 65.449C105.923 62.8386 107.499 59.9109 107.5 56.7851C107.501 53.6592 105.926 50.7306 103.183 48.1184C100.441 45.5074 96.4992 43.1785 91.6694 41.2328C82.0073 37.3403 68.6926 34.9418 54.0102 34.9372C39.3279 34.9327 26.0117 37.323 16.3471 41.2095C11.5162 43.1522 7.57308 45.4786 4.82936 48.088C2.08446 50.6985 0.507574 53.6261 0.506607 56.752Z" stroke-width="0.8"/>
<circle cx="53.7166" cy="57.3278" r="10" stroke-width="0.8"/>
<circle cx="53.5" cy="57.5" r="6" stroke-width="0.8"/>
</svg>
